<?xml version="1.0" encoding="UTF-8" standalone="no"?>
<!DOCTYPE svg PUBLIC "-//W3C//DTD SVG 1.1//EN" "http://www.w3.org/Graphics/SVG/1.1/DTD/svg11.dtd">
<svg width="100%" height="100%" viewBox="0 0 463 358" version="1.1" xmlns="http://www.w3.org/2000/svg" xmlns:xlink="http://www.w3.org/1999/xlink" xml:space="preserve" xmlns:serif="http://www.serif.com/" style="fill-rule:evenodd;clip-rule:evenodd;stroke-linecap:round;stroke-linejoin:round;stroke-miterlimit:1.5;">
    <g transform="matrix(1,0,0,1,-1062.7,-754.511)">
        <g transform="matrix(0.397211,0,0,0.551288,702.464,428.661)">
            <path d="M924.377,946.752C945.885,947.065 966.916,947.371 988.483,946.752C1013.87,946.022 1039.83,944.299 1065.18,942.708C1084.82,941.475 1104.29,938.042 1123.6,934.255C1158.56,927.395 1184.83,920.283 1214.92,901.084C1228.24,892.593 1241.05,882.941 1251.88,871.452C1274.2,847.771 1285.6,824.08 1300.46,795.924C1305.25,786.86 1309.96,773.799 1315.24,765.012C1318.1,760.239 1321.59,750.426 1327.01,752.825C1337.29,757.384 1339.72,772.843 1343.69,782.116C1352.22,802.094 1359.24,823.075 1368.33,842.668C1375.13,857.317 1383.53,871.089 1396.08,882.761C1431.33,915.517 1485.82,917.839 1530.62,912.581C1542.81,911.149 1597.26,886.43 1604,882.761C1618.82,874.691 1632.27,865.972 1644.19,854.027C1657.91,840.278 1671.9,825.042 1679.29,807.302C1686.82,789.256 1685.4,790.604 1690.56,772.452C1692.53,765.52 1698.73,738.984 1700.76,732.069C1703.24,723.594 1705.7,715.11 1707.93,706.567C1708.33,705.044 1713,681.815 1716.42,669.835C1719.81,657.929 1724.79,639.457 1728.43,634.689C1730.48,631.997 1736.62,631.936 1738.59,634.689C1746,645.047 1748.12,673.604 1751.76,685.811C1757.82,706.141 1771.19,767.489 1774.56,782.116C1778.16,797.794 1783.38,813.08 1788.75,828.247C1793.93,842.885 1799.56,857.396 1806.16,871.452C1816.84,894.214 1855.76,931.209 1883.53,934.255C1912.05,937.384 1940.57,940.736 1969.19,942.708C2001.07,944.903 2033.03,945.828 2064.97,946.752" style="fill:none;stroke:rgb(255,64,255);stroke-width:8.67px;"/>
        </g>
        <g transform="matrix(0.438095,0,0,0.437898,570.672,234.491)">
            <path d="M1641.15,1703.69L1815.67,1704L1815.95,1704.64C1829.58,1738.14 1836.67,1771.97 1842.34,1807.66C1850.17,1856.98 1849.73,1862.71 1854.65,1914.01C1856.23,1930.41 1857.35,1946.87 1859.46,1963.22C1860.6,1972.12 1862.48,1980.92 1864.4,1989.69C1865.19,1993.29 1866.33,1996.82 1867.58,2000.29C1870.6,2008.68 1873.24,1994.41 1873.42,1993.59C1874.67,1987.87 1875.56,1982.07 1876.35,1976.27C1881.48,1938.47 1881.65,1933.58 1883.95,1895.11C1886.25,1856.59 1890.05,1818.17 1892.05,1779.64C1893.35,1754.49 1893.93,1729.32 1894.63,1704.14L1815.67,1704C1812.57,1696.38 1804.36,1677.1 1798.16,1668.54C1796.36,1666.06 1794.21,1663.83 1791.84,1661.89C1790.43,1660.73 1787.39,1660.6 1785.8,1661.33C1778.59,1664.63 1774.2,1671.68 1767.03,1674.89C1757.26,1679.26 1747.05,1684.33 1737.18,1688.47C1720.09,1695.64 1705.23,1700.25 1686.19,1701.03C1671.18,1701.65 1656.17,1702.84 1641.15,1703.69Z" style="fill:rgb(142,250,0);stroke:black;stroke-width:1.9px;"/>
        </g>
        <g transform="matrix(0.438095,0,0,0.437898,570.672,234.491)">
            <path d="M1247.67,1702.97L1424.02,1703.29C1430.52,1710.72 1433.27,1720.68 1437.74,1730.9C1442.35,1741.47 1447.4,1751.84 1452.16,1762.35C1453.97,1766.34 1455.53,1770.45 1457.45,1774.4C1458.57,1776.71 1461.12,1781.28 1463.1,1779.64C1465.57,1777.6 1468.21,1766.48 1468.55,1765.22C1472.58,1750.29 1475.31,1737.97 1479.81,1723.17C1481.63,1717.18 1483.46,1709.85 1486.6,1703.41L1424.02,1703.29C1420.97,1699.57 1417,1696.5 1411.57,1694.25C1406.89,1692.32 1402.15,1690.42 1397.22,1689.26C1389.4,1687.42 1378.63,1687.12 1370.81,1689.26C1361.51,1691.8 1336.62,1699.88 1326.82,1701.03C1297.61,1704.49 1284,1702.26 1254.69,1702.77L1247.67,1702.97Z" style="fill:rgb(142,250,0);stroke:black;stroke-width:1.9px;"/>
        </g>
        <g transform="matrix(0.438095,0,0,0.437898,570.672,234.491)">
            <path d="M1894.63,1704.14L2071.74,1704.47L2072.91,1704.64C2088.46,1706.85 2106.65,1704.84 2122.22,1704.64C2137.04,1704.44 2151.87,1704.64 2166.7,1704.64L2071.74,1704.47C2054.82,1702.09 2036,1699.84 2019.96,1694.45C2004.35,1689.2 1984.86,1674.18 1973.28,1661.57C1957.16,1644.02 1954.6,1626.26 1947.87,1604.48C1945.15,1595.68 1942.02,1587.01 1938.79,1578.38C1935.89,1570.63 1932.87,1562.92 1929.47,1555.37C1927.73,1551.47 1925.69,1547.69 1923.4,1544.09C1922.59,1542.83 1919.22,1537.76 1916.29,1540.25C1914.57,1541.7 1913.72,1543.98 1912.79,1546.03C1908.77,1554.84 1904.75,1571.31 1903.54,1578.76C1900.17,1599.52 1896.92,1641.86 1896.05,1661.89C1895.44,1675.97 1895.01,1690.06 1894.63,1704.14Z" style="fill:rgb(142,250,0);stroke:black;stroke-width:1.9px;"/>
        </g>
        <g transform="matrix(0.438095,0,0,0.437898,570.672,234.491)">
            <path d="M1486.6,1703.41L1566.31,1703.55C1584.46,1706.43 1601.21,1705.07 1619.57,1704.64C1626.76,1704.47 1633.96,1704.12 1641.15,1703.69L1566.31,1703.55C1563.25,1703.1 1560.16,1702.51 1557.01,1701.77C1551.13,1700.38 1539.06,1694.75 1534.17,1691.72C1524.53,1685.75 1504.88,1684.76 1495.5,1691.77C1491.58,1694.69 1488.76,1698.82 1486.6,1703.41Z" style="fill:rgb(142,250,0);stroke:black;stroke-width:1.9px;"/>
        </g>
        <g transform="matrix(0.438095,0,0,0.437898,570.672,234.491)">
            <path d="M1247.67,1702.97L1132.62,1702.77C1148.69,1703.7 1164.78,1704.64 1180.88,1704.64C1203.15,1704.64 1225.4,1703.45 1247.67,1702.97Z" style="fill:none;stroke:black;stroke-width:1.9px;"/>
        </g>
        <g transform="matrix(1.18913,0,0,1.46114,505.091,83.2796)">
            <path d="M473.503,614.417L850.641,614.417" style="fill:none;stroke:black;stroke-width:1.56px;stroke-dasharray:6.26,3.13,0,0;"/>
        </g>
        <g transform="matrix(1,0,0,1,152.372,-9.26424)">
            <text x="910.599px" y="800.177px" style="font-family:'Arial-BoldItalicMT', 'Arial', sans-serif;font-weight:700;font-style:italic;font-size:50px;fill:url(#_Linear1);">ppXES</text>
        </g>
    </g>
    <defs>
        <linearGradient id="_Linear1" x1="0" y1="0" x2="1" y2="0" gradientUnits="userSpaceOnUse" gradientTransform="matrix(187.988,0,0,65.1693,910.599,785.919)"><stop offset="0" style="stop-color:rgb(228,13,242);stop-opacity:1"/><stop offset="1" style="stop-color:rgb(4,51,255);stop-opacity:1"/></linearGradient>
    </defs>
</svg>
